<svg xmlns="http://www.w3.org/2000/svg" xmlns:xlink="http://www.w3.org/1999/xlink" width="87" zoomAndPan="magnify" viewBox="0 0 65.25 42" height="56" preserveAspectRatio="xMidYMid meet" version="1.2"><defs><clipPath id="d10660accb"><path d="M 0.390625 0 L 64.125 0 L 64.125 41.023438 L 0.390625 41.023438 Z M 0.390625 0 "/></clipPath><clipPath id="4a225d6bc6"><path d="M 0.390625 0 L 41.414062 0 L 41.414062 41.023438 L 0.390625 41.023438 Z M 0.390625 0 "/></clipPath><clipPath id="9e3e7d97f5"><path d="M 5 23 L 37 23 L 37 41.023438 L 5 41.023438 Z M 5 23 "/></clipPath><clipPath id="ca51b1c54b"><path d="M 49.109375 15.160156 L 63.761719 15.160156 L 63.761719 26.148438 L 49.109375 26.148438 Z M 49.109375 15.160156 "/></clipPath></defs><g id="ceb16f0093"><g clip-rule="nonzero" clip-path="url(#d10660accb)"><path style=" stroke:none;fill-rule:nonzero;fill:#ffffff;fill-opacity:1;" d="M 0.390625 0 L 64.125 0 L 64.125 41.023438 L 0.390625 41.023438 Z M 0.390625 0 "/><path style=" stroke:none;fill-rule:nonzero;fill:#ffffff;fill-opacity:1;" d="M 0.390625 0 L 64.125 0 L 64.125 41.023438 L 0.390625 41.023438 Z M 0.390625 0 "/></g><g clip-rule="nonzero" clip-path="url(#4a225d6bc6)"><path style=" stroke:none;fill-rule:nonzero;fill:#b3b3b3;fill-opacity:1;" d="M 41.417969 20.511719 C 41.417969 25.761719 39.449219 30.546875 36.207031 34.171875 C 32.449219 38.378906 26.988281 41.023438 20.90625 41.023438 C 14.824219 41.023438 9.359375 38.378906 5.605469 34.171875 C 2.363281 30.546875 0.394531 25.761719 0.394531 20.511719 C 0.394531 9.183594 9.574219 0 20.90625 0 C 32.234375 0 41.417969 9.183594 41.417969 20.511719 "/></g><path style=" stroke:none;fill-rule:nonzero;fill:#f2f2f2;fill-opacity:1;" d="M 20.90625 24.289062 C 24.621094 24.289062 28.007812 20.085938 28.007812 15.464844 C 28.007812 11.101562 27.164062 6.789062 20.90625 6.789062 C 14.644531 6.789062 13.800781 11.101562 13.800781 15.464844 C 13.800781 20.085938 17.1875 24.289062 20.90625 24.289062 "/><g clip-rule="nonzero" clip-path="url(#9e3e7d97f5)"><path style=" stroke:none;fill-rule:nonzero;fill:#f2f2f2;fill-opacity:1;" d="M 36.207031 34.171875 C 32.449219 38.378906 26.988281 41.023438 20.90625 41.023438 C 14.824219 41.023438 9.359375 38.378906 5.605469 34.171875 C 5.539062 31.640625 7.226562 25.769531 15.832031 23.964844 C 17.304688 25.464844 19.117188 26.316406 20.90625 26.316406 C 22.695312 26.316406 24.503906 25.464844 25.976562 23.964844 C 34.582031 25.769531 36.269531 31.640625 36.207031 34.171875 "/></g><g clip-rule="nonzero" clip-path="url(#ca51b1c54b)"><path style="fill:none;stroke-width:1.5;stroke-linecap:butt;stroke-linejoin:miter;stroke:#8c8c8c;stroke-opacity:1;stroke-miterlimit:4;" d="M 12.999808 1.001525 L 7.595863 7.947788 C 7.187947 8.473913 6.387085 8.459693 5.997882 7.919349 L 1.001852 1.001525 " transform="matrix(1.043798,0,0,1.098837,49.130051,15.161206)"/></g></g></svg>